<svg id="Layer_1" data-name="Layer 1" xmlns="http://www.w3.org/2000/svg" viewBox="0 0 658.35 186.09"><defs><style>.cls-1{fill:#231f20;}.cls-2{fill:#ec1c24;}</style></defs><title>beckman-logo</title><polygon class="cls-1" points="658.35 46.97 646.52 107.12 636.15 107.12 614.26 69.45 614.08 69.45 606.67 107.12 593.73 107.12 605.46 46.97 615.42 46.97 637.66 85.33 637.85 85.33 645.5 46.97 658.35 46.97"/><polygon class="cls-1" points="534.98 46.97 512.82 71.73 499.41 46.97 489.26 46.97 477.53 107.12 490.47 107.12 497.95 69.09 498.13 69.09 509.84 90.54 529.77 68.41 529.96 68.41 522.41 107.12 535.35 107.12 547.17 46.97 534.98 46.97"/><polygon class="cls-1" points="468.13 46.97 443.35 73.57 448.57 46.97 435.54 46.97 423.81 107.12 436.75 107.12 442.3 78.9 461.98 107.12 478.18 107.12 455.85 75.66 483.58 46.97 468.13 46.97"/><polygon class="cls-1" points="467.28 172.29 470.63 155.53 490.93 155.52 492.79 146.22 472.49 146.22 475.47 130.76 500.43 130.76 502.29 121.45 464.3 121.45 452.57 181.6 493.54 181.6 503.03 172.29 467.28 172.29"/><path class="cls-1" d="M417.58,50.78a39.9,39.9,0,0,0-10.06,1.09,36.54,36.54,0,0,0-27.32,36c0,12.47,8.21,26.07,25.34,26.07,13,0,19.48-5.77,24.7-8.93L425,97.14c-3.3,2.17-5.58,4-9.12,5.31a25.12,25.12,0,0,1-8.8,1.47c-7.49,0-13.57-6.37-13.51-16.46.06-12.69,7.77-26.81,21.94-26.81,6.89,0,9.12,2.6,11.54,5L433.59,58A21.73,21.73,0,0,0,417.58,50.78Z" transform="translate(-4.19 -5.3)"/><polygon class="cls-1" points="411.04 121.45 409.18 130.76 426.08 130.76 416.16 181.6 429.11 181.6 439.1 130.76 454.99 130.76 464.49 121.45 411.04 121.45"/><polygon class="cls-1" points="344.67 97.81 348.02 81.05 368.32 81.05 370.18 71.73 349.88 71.73 352.86 56.28 377.81 56.28 379.68 46.97 341.69 46.97 329.96 107.12 372.23 107.12 381.73 97.81 344.67 97.81"/><polygon class="cls-1" points="386.95 172.29 396.89 121.42 383.97 121.42 372.24 181.6 408.92 181.6 418.42 172.29 386.95 172.29"/><path class="cls-1" d="M369.24,126.75l-7.91,40.6c-1.3,6.65-7.15,10.8-13.69,10.8s-10.53-5.07-9.4-10.8l8-40.6H333.3l-7.63,38.92C322.86,180,332,188.2,345.59,188.2c16.91,0,26.09-7.88,29-22.53l7.63-38.92Z" transform="translate(-4.19 -5.3)"/><path class="cls-1" d="M249.75,117.44a45.09,45.09,0,0,0-10.75.92,40.15,40.15,0,0,0-30.87,39.11c0,16.6,11.61,30.92,28.81,30.92,13.82,0,20.68-5.59,25.52-9.13l-4.85-8.16c-4.57,3.84-8.55,7.22-18,7.22-10.09,0-17.6-8.13-17.58-20.34,0-15.45,8.85-31,25.79-31,6.17,0,10.59,3.71,13.8,7l6.75-7.53C264.88,123,257.65,117.44,249.75,117.44Z" transform="translate(-4.19 -5.3)"/><path class="cls-2" d="M174.32,34.57C161.23,15,134.79,5.3,112.12,5.3,53.43,5.3,4.19,53.8,4.19,112.66a86.55,86.55,0,0,0,6.06,32.12l-.05-.15a52.34,52.34,0,0,1-1.38-9.88A33.15,33.15,0,0,1,27.73,104.9a62.59,62.59,0,0,1,3.21-6.39c8.83-15.46,30.11-31.85,57-31.86,23.8,0,46.56,13.39,72.64,13.39a32.58,32.58,0,0,0,4.38-.28c.13-13.33-5.41-26.13-13.29-36.66S129,24.69,116.19,23.53c2.09-.13,4.17-.43,6.2-.45a47.53,47.53,0,0,1,48,47.73,58,58,0,0,1-.51,7.83c7.64-2.58,12.47-8.7,12.81-18.1C182.87,54.57,180.34,43.57,174.32,34.57Z" transform="translate(-4.19 -5.3)"/><path class="cls-2" d="M150.49,95c-24.91.06-49.89-14.8-78.86-14.84-22,0-29.55,7-37.59,18.9a26.43,26.43,0,0,0-2.27,4.12,36.14,36.14,0,0,1,11.76-2c24.91-.07,49.9,14.79,78.86,14.83,22,0,29.55-7,37.59-18.9A26.43,26.43,0,0,0,162.25,93,36.42,36.42,0,0,1,150.49,95Z" transform="translate(-4.19 -5.3)"/><path class="cls-2" d="M184.25,52.4c-.91-2.32-.43-.78-.43-.78s1.39,7.9,1.39,9.88a33.17,33.17,0,0,1-18.92,29.85,62.59,62.59,0,0,1-3.21,6.39c-8.83,15.46-30.11,31.85-57,31.86-23.81,0-46.56-13.39-72.65-13.39a34.31,34.31,0,0,0-4.38.28c-.13,13.34,5.41,26.13,13.29,36.66,8,10.69,22.67,18.41,35.46,19.57-2.09.13-4.17.43-6.2.45a47.53,47.53,0,0,1-48-47.73,58.09,58.09,0,0,1,.51-7.83c-7.64,2.59-12.47,8.7-12.81,18.11-.22,6,2.27,17,8.33,26C33,181.41,59.48,191.39,82.48,191.39c58.85,0,108-46.07,107.92-105.66A91.4,91.4,0,0,0,184.25,52.4Z" transform="translate(-4.19 -5.3)"/><path class="cls-1" d="M583.49,52.27h-8.18l-35.77,60.14h14l7.63-14.15h20.19l2.9,14.15h14ZM565.85,89l9.45-17.88h.37L579.36,89Z" transform="translate(-4.19 -5.3)"/><path class="cls-1" d="M538.65,159.48c6.19-.7,15.38-4.24,17.55-15.6,1.92-10-5.7-17.13-19.93-17.13H516.72L505,186.9h12.94l5.35-27.18h.37l18.58,27.18H559Zm-13.8-7.78,3.08-15.64h4.71c9,0,10.83,3.52,10,7.82-1.1,5.48-4.48,7.82-12,7.82Z" transform="translate(-4.19 -5.3)"/><path class="cls-1" d="M320.35,75.92l0-.19c3.17-1.49,10.9-3.55,12.66-13,2.38-12.79-7.72-18.25-23.83-18.25H288.9l-13.41,68h24.59c20.91,0,30.71-6.85,32.95-18.06C335,84.44,327.26,77.22,320.35,75.92ZM300,53.76h6c9.66,0,14.74,2.27,13.41,8.94-1.09,5.45-4.83,8.93-15.45,8.93h-7.55Zm19.83,38.36c-1.86,9.31-10.22,11-21.78,11H290.3l4.28-22.16h7.73C312.43,80.94,321.72,82.56,319.81,92.12Z" transform="translate(-4.19 -5.3)"/><path class="cls-1" d="M298.53,125.45a36.36,36.36,0,0,0-10.74,1.4c-14.87,4.6-24.61,18.83-24.61,35.47,0,12.42,7.89,25.88,24,25.88a36.75,36.75,0,0,0,9.51-1c15.56-4.19,25.84-18.74,25.84-35.83C322.56,138.91,314.66,125.45,298.53,125.45Zm-5.16,52.64a21.4,21.4,0,0,1-4.7.32c-6.3,0-12.83-6.75-12.83-17,0-9.84,5.25-22.31,15.3-25.46a19.57,19.57,0,0,1,5.92-.69c6.27,0,12.84,6.67,12.84,16.84C309.9,162.45,304.41,175.61,293.37,178.09Z" transform="translate(-4.19 -5.3)"/></svg>