<svg id="cytiva_logo" data-name="cytiva logo" xmlns="http://www.w3.org/2000/svg" viewBox="0 0 359.81 151.58"><title>cytiva_logo_hz_color_pos_rgb</title><path d="M154.4,86.33a5.14,5.14,0,0,1-5-2.93A17.37,17.37,0,0,1,148,75.68,16.61,16.61,0,0,1,149.5,68a5.21,5.21,0,0,1,4.93-2.9,4.43,4.43,0,0,1,3.38,1.26,7.27,7.27,0,0,1,1.62,3.38l10.23,0a14.7,14.7,0,0,0-5.5-10.22,15.69,15.69,0,0,0-9.76-2.85c-5.3,0-9.52,1.75-12.55,5.2s-4.56,8.2-4.56,14.11,1.47,10.49,4.38,13.82,7.11,5,12.51,5c4.4,0,7.93-1.12,10.51-3.33s4.18-5.27,5-9.39h-10a6.71,6.71,0,0,1-1.77,3.11A4.92,4.92,0,0,1,154.4,86.33Z" fill="#18181b"/><path d="M232.1,92.81l-1.4-7.68a22.52,22.52,0,0,1-2.52.56,18,18,0,0,1-2.94.22c-3,0-4.46-1.61-4.46-4.79V66h10.45V57.83H220.78V49.19H210.27V80.83a23.87,23.87,0,0,0,1,7.13,8.66,8.66,0,0,0,3.58,4.76c1.73,1.14,4.24,1.71,7.48,1.71a29.39,29.39,0,0,0,5.23-.42A31.81,31.81,0,0,0,232.1,92.81Z" fill="#18181b"/><path d="M237,64.71v29h10.59V57.83h-3.71A6.89,6.89,0,0,0,237,64.71Z" fill="#18181b"/><polygon points="277.61 57.83 270.08 83.81 262.73 57.83 251.39 57.83 264.29 93.74 275.62 93.74 288.55 57.83 277.61 57.83" fill="#18181b"/><path d="M181.12,57.77h-11l14.28,32.58v0s-.61,2-.9,2.86a2.37,2.37,0,0,1-.93,1.39l-.26.23a4.52,4.52,0,0,1-3.11,1,13,13,0,0,1-1.73-.12,21.66,21.66,0,0,1-2.18-.47l-1.61,7.51a21.27,21.27,0,0,0,7.24,1.18,10.76,10.76,0,0,0,5.59-1.29,10.92,10.92,0,0,0,3.69-3.89c1.91-3.2,15.63-38.73,16.51-41H196.05L189,79.91Z" fill="#18181b"/><path d="M313.32,61.18l-.15-.21a9.38,9.38,0,0,0-4.23-3.37,10.2,10.2,0,0,0-4.35-.88c-.25,0-.5,0-.77,0a15.23,15.23,0,0,0-10.4,5.09c-3,3.45-4.56,8.2-4.56,14.11s1.48,10.49,4.38,13.82a13.75,13.75,0,0,0,5.1,3.68,12.31,12.31,0,0,0,4.71,1.12c1,0,2.46-.17,2.47-.17a12,12,0,0,0,7.65-4.72l.15-.2v4.27H323.9V57.83H313.32Zm.62,15.42a17.51,17.51,0,0,1-.49,4.34,8.46,8.46,0,0,1-1.84,3.47A6.42,6.42,0,0,1,309.5,86a6.79,6.79,0,0,1-2.88.55,6.39,6.39,0,0,1-5.06-2.47c-1.37-1.64-2.07-4.39-2.07-8.19s.69-6.42,2-8.14a6.42,6.42,0,0,1,5.29-2.6,6.06,6.06,0,0,1,4.73,2,9.12,9.12,0,0,1,1.76,3.25,16.75,16.75,0,0,1,.64,5Z" fill="#18181b"/><path d="M242.3,42.77a6.08,6.08,0,1,0,6.07,6.08A6.08,6.08,0,0,0,242.3,42.77Z" fill="#18181b"/><path d="M35.9,75.57A40.12,40.12,0,1,0,82,35.9s0,52.7,0,52.9C82,97.13,75.74,105,67.41,105s-15.2-6.12-15.2-13.62A14.92,14.92,0,0,1,56.55,80.5c4-3.94,11.85-7.89,16.1-13.47,2.71-3.54,3.44-5.87,3.44-9.62a15.09,15.09,0,0,0-14.88-15.3A20,20,0,0,0,52,44.57,28.27,28.27,0,0,0,41.43,55.23,39.94,39.94,0,0,0,35.9,75.57Z" fill="#00886f"/></svg>