<svg id="Layer_1" data-name="Layer 1" xmlns="http://www.w3.org/2000/svg" viewBox="0 0 507.63 136.68"><defs><style>.cls-1{fill:#999;}.cls-2{fill:#3bd1a6;}.cls-3{fill:#c2c2c2;}.cls-4{fill:#8ae3c9;}</style></defs><title>FMS_Logo_RGB</title><polygon class="cls-1" points="20.98 22.55 0 1.57 0 47.14 20.98 68.12 20.98 68.12 20.98 22.55 20.98 22.55"/><polygon class="cls-2" points="20.98 89.1 0 68.12 0 113.69 20.98 134.67 20.98 134.67 20.98 89.1 20.98 89.1"/><polygon class="cls-2" points="86.72 22.55 65.74 1.57 65.74 47.14 86.72 68.12 86.73 68.12 86.73 22.55 86.72 22.55"/><polygon class="cls-1" points="110.5 113.69 131.48 134.67 131.48 89.1 110.5 68.12 110.5 68.12 110.5 113.69 110.5 113.69"/><polygon points="172.64 1.57 213.8 1.57 213.8 12.27 185.56 12.27 185.56 29.25 211.77 29.25 211.77 39.96 185.56 39.96 185.56 63.03 172.64 63.03 172.64 1.57"/><rect x="263.27" y="1.57" width="12.27" height="61.46"/><rect x="281.54" y="1.57" width="12.27" height="61.46"/><polygon points="467.76 1.57 467.76 63.03 480.04 63.03 480.04 41.9 492.96 63.03 507.63 63.03 490.75 39.22 506.06 18.46 491.94 18.46 480.04 37.1 480.04 1.57 467.76 1.57"/><polygon points="240.84 135.67 228.57 135.67 228.57 86.2 213.53 135.67 200.14 135.67 184.92 86.2 184.92 135.67 172.64 135.67 172.64 74.2 193.22 74.2 207.34 120.72 221.19 74.2 240.84 74.2 240.84 135.67"/><rect x="385.08" y="74.2" width="12.27" height="61.46"/><path d="M246.23,58.15a15.29,15.29,0,0,1-13,6.55,16.33,16.33,0,0,1-8.68-2.31,12.17,12.17,0,0,1-5.26-6.28c-.25-.68-.46-1.35-.65-2a14.67,14.67,0,0,1-.41-2.35q-.14-1.34-.18-3.09t0-4.25V19.12h12.27V45.23q0,5.54,1.61,7.85t5.49,2.31a6.81,6.81,0,0,0,6.23-3.18q2-3.18,2-10V19.12H258V63.69H246.23Z" transform="translate(-0.68 -0.66)"/><path d="M312.67,42.74q.09,5.72,3.23,8.91t8.77,3.18a12.77,12.77,0,0,0,7.61-2,6.46,6.46,0,0,0,2.82-5.54,7.07,7.07,0,0,0-.51-2.77,6,6,0,0,0-1.71-2.22,12.28,12.28,0,0,0-3.18-1.85q-2-.83-5-1.75l-10.24-3a20.77,20.77,0,0,1-10.34-6.37,15.8,15.8,0,0,1-3.6-10.43,16.36,16.36,0,0,1,6.37-13.2A22.61,22.61,0,0,1,314.2,2,31.69,31.69,0,0,1,323.66.66q10.52,0,16.66,5.49t6.32,15.09h-13.2a3.44,3.44,0,0,0,.09-.83,8.74,8.74,0,0,0-3-6.92,11.63,11.63,0,0,0-7.94-2.58,10.58,10.58,0,0,0-6.6,1.94,6,6,0,0,0-2.54,5,6.31,6.31,0,0,0,.46,2.54,5.25,5.25,0,0,0,1.61,2,12.39,12.39,0,0,0,3.09,1.71,47.88,47.88,0,0,0,4.89,1.61l9,2.49a41.34,41.34,0,0,1,6.69,2.58A19.58,19.58,0,0,1,343.87,34a14.77,14.77,0,0,1,3.51,5.21,17.13,17.13,0,0,1,1.2,6.42,18.8,18.8,0,0,1-1.71,8.07A17.06,17.06,0,0,1,342,59.86a23.11,23.11,0,0,1-7.61,3.92,33,33,0,0,1-9.87,1.39A32.4,32.4,0,0,1,314.1,63.6a23.1,23.1,0,0,1-7.94-4.43,19,19,0,0,1-5-7A23.13,23.13,0,0,1,299.39,43v-.28Z" transform="translate(-0.68 -0.66)"/><path d="M375.89,28.35h-7.11V48.28q0,3.69,1.06,5.26a4,4,0,0,0,3.55,1.57c.31,0,.63,0,1,0s.85-.11,1.52-.23V64a28.06,28.06,0,0,1-2.91.6,25.82,25.82,0,0,1-3.09.14q-9.41,0-12.18-6.55a14.77,14.77,0,0,1-1-3.69,49.45,49.45,0,0,1-.23-5.63V28.35H350V19.12h6.55V8.32h12.27v10.8h7.11Z" transform="translate(-0.68 -0.66)"/><path d="M380.23,33.05A14.5,14.5,0,0,1,386,21.84q5.31-4,14.35-4,10,0,14.95,5.17a13.26,13.26,0,0,1,3.37,5.58,33.35,33.35,0,0,1,1,9.18,13.84,13.84,0,0,0-.09,2.08q0,1.62-.09,4.38v4.15q0,5.26.28,8.91a42.57,42.57,0,0,0,.92,6.41H410.22a20.71,20.71,0,0,1-.42-2.77c0-.61,0-1.35,0-2.21V56.86a14.89,14.89,0,0,1-6,6,19.69,19.69,0,0,1-9.09,1.85,20.93,20.93,0,0,1-6.55-1A15,15,0,0,1,383.09,61a12.89,12.89,0,0,1-3.32-4.29,12.83,12.83,0,0,1-.28-10.2A12.53,12.53,0,0,1,382,42.56a13.91,13.91,0,0,1,4.61-3.18,37.77,37.77,0,0,1,7.29-2.08q3.51-.65,7.15-1.15t6.88-.69q0-4.71-1.75-6.83t-5.63-2.12q-7.2,0-7.66,6.55Zm26,10.7-4.15.65q-5.81.92-8.3,2.35a4.43,4.43,0,0,0-2.49,4,4.56,4.56,0,0,0,1.89,3.83A7.8,7.8,0,0,0,398,56q9.6,0,9.88-12.55Z" transform="translate(-0.68 -0.66)"/><path d="M464.11,46.71a19.68,19.68,0,0,1-1.71,7.38,17.38,17.38,0,0,1-4.11,5.68,18.28,18.28,0,0,1-6.14,3.64,23,23,0,0,1-7.89,1.29A22,22,0,0,1,435.57,63a18.66,18.66,0,0,1-6.66-4.71A21.39,21.39,0,0,1,424.65,51a28.59,28.59,0,0,1-1.51-9.55,29,29,0,0,1,1.51-9.6,21.33,21.33,0,0,1,4.26-7.38,18.58,18.58,0,0,1,6.7-4.71,22.41,22.41,0,0,1,8.75-1.66,23.35,23.35,0,0,1,7.94,1.29A18.19,18.19,0,0,1,458.48,23a16.52,16.52,0,0,1,4,5.58,18.7,18.7,0,0,1,1.52,7.2H451.56q-.65-8-7.29-8a7.4,7.4,0,0,0-6.51,3.55q-2.35,3.55-2.35,9.92t2.4,10.11a7.42,7.42,0,0,0,6.55,3.74,6.26,6.26,0,0,0,5.08-2.21,10.17,10.17,0,0,0,2-6.18Z" transform="translate(-0.68 -0.66)"/><path d="M290.07,114.08a27,27,0,0,1-1.61,9.55,21.37,21.37,0,0,1-4.51,7.34,19.73,19.73,0,0,1-7,4.71,26.88,26.88,0,0,1-18.6,0A20.18,20.18,0,0,1,251.2,131a21,21,0,0,1-4.56-7.34,27,27,0,0,1-1.61-9.55,27.29,27.29,0,0,1,1.61-9.65,21,21,0,0,1,4.56-7.34,20.19,20.19,0,0,1,7.09-4.71,26.86,26.86,0,0,1,18.6,0,19.74,19.74,0,0,1,7,4.71,21.4,21.4,0,0,1,4.51,7.34,27.27,27.27,0,0,1,1.61,9.65m-32.76,0q0,6.64,2.69,10.34a8.85,8.85,0,0,0,7.6,3.69,8.73,8.73,0,0,0,7.55-3.69q2.64-3.69,2.64-10.43t-2.64-10.29a9.71,9.71,0,0,0-15.2,0q-2.64,3.69-2.64,10.34" transform="translate(-0.68 -0.66)"/><path d="M336.12,136.33H324.49v-5.91q-4.25,6.92-13,6.92a16.19,16.19,0,0,1-7.43-1.71,17.59,17.59,0,0,1-5.81-4.75,22,22,0,0,1-3.78-7.34,31.33,31.33,0,0,1-1.34-9.37,33,33,0,0,1,1.29-9.55A23,23,0,0,1,298,97.24a16.79,16.79,0,0,1,5.63-4.8,15.44,15.44,0,0,1,7.24-1.71,16.73,16.73,0,0,1,7.61,1.57,13.67,13.67,0,0,1,5.31,5.08V74.86h12.27Zm-30.73-22.24a16.36,16.36,0,0,0,2.55,9.51,7.74,7.74,0,0,0,6.63,3.69,8.07,8.07,0,0,0,6.86-3.6q2.6-3.6,2.6-9.69t-2.5-9.64a7.78,7.78,0,0,0-6.77-3.46,8,8,0,0,0-6.86,3.55q-2.51,3.55-2.5,9.64" transform="translate(-0.68 -0.66)"/><path d="M369,130.79a15.29,15.29,0,0,1-13,6.55,16.33,16.33,0,0,1-8.67-2.31,12.16,12.16,0,0,1-5.26-6.28q-.37-1-.65-2a14.78,14.78,0,0,1-.41-2.35q-.14-1.34-.18-3.09t0-4.25V91.75H353v26.12q0,5.54,1.61,7.84t5.49,2.31a6.81,6.81,0,0,0,6.23-3.18q2-3.18,2-10V91.75h12.36v44.57H369Z" transform="translate(-0.68 -0.66)"/><path d="M402.74,105.69a14.5,14.5,0,0,1,5.77-11.21q5.31-4,14.35-4,10,0,14.95,5.17a13.27,13.27,0,0,1,3.37,5.58,33.3,33.3,0,0,1,1,9.18,13.86,13.86,0,0,0-.09,2.08q0,1.62-.09,4.38V121q0,5.26.28,8.91a42.59,42.59,0,0,0,.92,6.41H432.74a20.88,20.88,0,0,1-.42-2.77c0-.61,0-1.35,0-2.22V129.5a14.89,14.89,0,0,1-6,6,19.67,19.67,0,0,1-9.09,1.85,20.94,20.94,0,0,1-6.55-1,15,15,0,0,1-5.08-2.77,12.88,12.88,0,0,1-3.32-4.29,12.83,12.83,0,0,1-.28-10.2,12.54,12.54,0,0,1,2.49-3.92,13.94,13.94,0,0,1,4.61-3.18,37.77,37.77,0,0,1,7.29-2.08q3.51-.65,7.15-1.15t6.88-.69q0-4.71-1.75-6.83T423,99.14q-7.2,0-7.66,6.55Zm26,10.7-4.15.65q-5.81.92-8.3,2.35a4.44,4.44,0,0,0-2.49,4,4.56,4.56,0,0,0,1.89,3.83,7.81,7.81,0,0,0,4.85,1.43q9.6,0,9.88-12.55Z" transform="translate(-0.68 -0.66)"/><path d="M447.23,91.75h11.63v5.72q4.06-6.73,12.37-6.74,1.2,0,1.75,0a6.63,6.63,0,0,1,1.57.42v10.61l-1.71-.28a11.37,11.37,0,0,0-1.61-.09,11.85,11.85,0,0,0-7.66,2.31,8.45,8.45,0,0,0-3.18,4.52,30.41,30.41,0,0,0-.88,8.4v19.66H447.23Z" transform="translate(-0.68 -0.66)"/><polygon class="cls-3" points="0 1.57 20.98 22.55 65.74 22.55 65.74 22.55 44.76 1.57 0 1.57"/><polygon class="cls-4" points="110.5 1.57 65.74 1.57 86.72 22.55 131.48 22.55 131.48 22.55 110.5 1.57"/><polygon class="cls-4" points="0 68.12 20.98 89.1 65.74 89.1 65.74 89.1 44.76 68.12 0 68.12"/><polygon class="cls-3" points="86.72 134.67 131.48 134.67 110.5 113.69 65.74 113.69 65.74 113.69 86.72 134.67"/></svg>